<svg width="30" height="41" viewBox="0 0 30 41" fill="none" xmlns="http://www.w3.org/2000/svg">
<g clip-path="url(#clip0_176_2275)">
<path d="M15.7928 3.05176e-05C16.2045 0.0515308 16.6192 0.0931271 17.0288 0.156512C22.578 1.0231 26.5211 3.98734 28.7954 8.97395C30.2463 12.1541 30.3274 15.4729 29.3571 18.8244C28.5145 21.7331 27.1822 24.431 25.6492 27.0357C22.9592 31.6063 19.7329 35.8046 16.2156 39.7939C15.3862 40.7338 14.5791 40.7357 13.7518 39.7939C9.76503 35.2549 6.12606 30.4753 3.27186 25.1648C1.96694 22.7364 0.818161 20.2327 0.302074 17.517C-0.712865 12.1818 0.836412 7.62108 4.84953 3.88929C7.22008 1.68666 10.0966 0.48235 13.3361 0.090156C13.6149 0.0564827 13.8947 0.0297422 14.1736 3.05176e-05C14.713 3.05176e-05 15.2534 3.05176e-05 15.7928 3.05176e-05ZM14.935 22.0431C19.0222 22.1154 22.4462 18.8273 22.5232 14.7588C22.5993 10.7022 19.2544 7.35565 15.0516 7.28336C10.9513 7.21304 7.53237 10.4784 7.44416 14.5469C7.35595 18.6194 10.7039 21.9689 14.936 22.0431H14.935Z" fill="#009BDA"/>
</g>
<defs>
<clipPath id="clip0_176_2275">
<rect width="30" height="40.5" fill="white"/>
</clipPath>
</defs>
</svg>
