<svg width="6" height="11" viewBox="0 0 6 11" fill="none" xmlns="http://www.w3.org/2000/svg">
<g clip-path="url(#clip0_52_5752)">
<path d="M5.00781 5.47629C4.95982 5.44281 4.91217 5.41855 4.87601 5.38302C3.6394 4.16988 2.40418 2.95537 1.16722 1.74292C1.05281 1.63086 0.980125 1.50821 1.00482 1.34594C1.05176 1.03608 1.42455 0.893273 1.67598 1.08903C1.71319 1.11807 1.74588 1.15291 1.77961 1.18605C3.12263 2.50544 4.46566 3.82449 5.80868 5.14422C6.06532 5.39635 6.06428 5.60235 5.80625 5.85584C4.45662 7.18173 3.10699 8.50658 1.75944 9.83315C1.6419 9.94896 1.51288 10.0224 1.34318 9.99337C1.03437 9.94076 0.895621 9.58102 1.09002 9.33812C1.12201 9.29815 1.16096 9.2633 1.19782 9.22743C2.42713 8.01941 3.65678 6.81139 4.88609 5.60338C4.91913 5.57092 4.95043 5.53676 5.00815 5.47663L5.00781 5.47629Z" fill="#5B5B5B"/>
</g>
<defs>
<clipPath id="clip0_52_5752">
<rect y="11" width="11" height="6" rx="3" transform="rotate(-90 0 11)" fill="white"/>
</clipPath>
</defs>
</svg>
