<svg width="20" height="21" viewBox="0 0 20 21" fill="none" xmlns="http://www.w3.org/2000/svg">
<path d="M11.7674 10.5L19.6338 2.63447C20.1221 2.14617 20.1221 1.35449 19.6338 0.866225C19.1455 0.377925 18.3538 0.377925 17.8655 0.866225L9.99997 8.73254L2.13447 0.866225C1.64617 0.377925 0.854486 0.377925 0.366225 0.866225C-0.122036 1.35453 -0.122075 2.14621 0.366225 2.63447L8.23254 10.5L0.366225 18.3655C-0.122075 18.8538 0.366225 20.1338 0.366225 20.1338C0.854526 20.622 1.64621 20.6221 2.13447 20.1338L9.99997 12.2674L17.8655 20.1338C18.3538 20.6221 19.1455 20.6221 19.6337 20.1338C20.122 19.6455 20.122 18.8538 19.6337 18.3655L11.7674 10.5Z" fill="black"/>
</svg>
