<svg width="60" height="60" viewBox="0 0 60 60" fill="none" xmlns="http://www.w3.org/2000/svg">
<g clip-path="url(#clip0_291_6375)">
<path d="M28.0244 59.9773C27.1793 59.864 26.3297 59.7666 25.4868 59.6329C18.2548 58.4865 12.2144 55.1491 7.39304 49.6503C3.48473 45.1937 1.15787 39.9894 0.301436 34.1326C-1.50885 21.7506 4.97782 9.15786 16.0842 3.41208C19.4805 1.65617 23.0648 0.496132 26.8644 0.149482C35.8025 -0.670698 43.6803 1.8782 50.3233 7.94572C55.582 12.749 58.6588 18.7576 59.7237 25.7971C59.8347 26.5266 59.9095 27.2607 60.0024 27.9925V31.9756C59.9095 32.7074 59.8324 33.4393 59.7259 34.1688C58.9919 39.176 57.177 43.7572 54.1297 47.7992C49.1905 54.3493 42.6608 58.3211 34.5428 59.6329C33.7022 59.7688 32.8526 59.864 32.0075 59.9773H28.0244ZM57.3946 30.0045C57.4444 14.9648 45.187 2.68026 30.0499 2.59643C15.0397 2.51486 2.75291 14.7654 2.6351 29.932C2.51955 44.9354 14.9083 57.3536 30.0092 57.3695C45.0669 57.3853 57.347 45.1166 57.3946 30.0045Z" fill="#009BDA"/>
<path d="M23.4838 36.5162C20.6925 36.5162 18.0009 36.5162 15.3092 36.5162C15.094 36.5162 14.8787 36.5208 14.6658 36.5162C13.619 36.4845 13.1319 36.011 13.1024 34.971C13.0821 34.2301 13.0979 33.487 13.0979 32.7461C13.0979 30.2471 13.0957 27.7503 13.0979 25.2512C13.0979 23.9212 13.5646 23.4568 14.8855 23.4568C17.5205 23.4568 20.1555 23.4568 22.7883 23.4568C22.9967 23.4568 23.2074 23.4568 23.4838 23.4568C23.4838 23.1872 23.4838 22.9787 23.4838 22.7703C23.4838 20.1353 23.4838 17.5003 23.4838 14.8653C23.4838 13.5376 23.946 13.0686 25.2692 13.0686C28.4298 13.0663 31.5927 13.0663 34.7534 13.0686C36.0788 13.0686 36.541 13.5376 36.5433 14.863C36.5433 17.498 36.5433 20.133 36.5433 22.768C36.5433 22.9765 36.5433 23.1849 36.5433 23.459H37.2366C39.8716 23.459 42.5066 23.459 45.1393 23.459C46.3968 23.459 46.9292 23.9802 46.9292 25.2286C46.9337 28.4096 46.9337 31.5929 46.9292 34.7739C46.9292 36.0563 46.4489 36.5208 45.1529 36.523C42.5179 36.5253 39.8829 36.523 37.2502 36.523H36.5433V37.1982C36.5433 39.8332 36.5433 42.4682 36.5433 45.1032C36.5433 46.4377 36.0833 46.9089 34.7692 46.9112C31.6086 46.9157 28.4457 46.9135 25.2851 46.9112C23.9347 46.9112 23.4838 46.4467 23.4838 45.0715C23.4838 42.4569 23.4838 39.84 23.4838 37.2254C23.4838 37.0147 23.4838 36.804 23.4838 36.523V36.5162ZM44.3644 26.1031H43.6621C41.0089 26.1031 38.3536 26.1031 35.7004 26.1031C34.4702 26.1031 33.9966 25.6341 33.9944 24.4197C33.9944 21.7258 33.9944 19.0319 33.9944 16.338C33.9944 16.1318 33.9944 15.9256 33.9944 15.7353H26.1347C26.1347 18.6331 26.1347 21.4811 26.1347 24.3313C26.1347 25.616 25.6498 26.1054 24.3765 26.1054C21.703 26.1054 19.0295 26.1054 16.356 26.1054C16.1521 26.1054 15.9482 26.1054 15.7669 26.1054V33.8676C18.6421 33.8676 21.4696 33.8676 24.2995 33.8676C25.6702 33.8676 26.137 34.3276 26.137 35.6802C26.137 38.3356 26.137 40.991 26.137 43.6441C26.137 43.848 26.137 44.0519 26.137 44.24H33.8969C33.8969 41.3467 33.8969 38.4987 33.8969 35.6507C33.8969 34.3389 34.3773 33.8676 35.705 33.8676C38.3785 33.8676 41.052 33.8676 43.7255 33.8676C43.9317 33.8676 44.1379 33.8495 44.3644 33.8382V26.1054V26.1031Z" fill="#009BDA"/>
</g>
<defs>
<clipPath id="clip0_291_6375">
<rect width="60" height="59.9773" fill="white"/>
</clipPath>
</defs>
</svg>
