<svg width="10" height="18" viewBox="0 0 10 18" fill="none" xmlns="http://www.w3.org/2000/svg">
<path d="M8.01561 8.95285C7.91963 8.88589 7.82435 8.83738 7.75201 8.76632C5.27879 6.34004 2.80835 3.91102 0.334432 1.48611C0.105611 1.262 -0.0397504 1.0167 0.00963054 0.69215C0.103524 0.0724258 0.849107 -0.213179 1.35196 0.178333C1.42638 0.236412 1.49176 0.306105 1.55922 0.372381C4.24527 3.01116 6.93132 5.64926 9.61736 8.28872C10.1306 8.79297 10.1286 9.20498 9.6125 9.71196C6.91323 12.3637 4.21397 15.0134 1.51888 17.6666C1.2838 17.8982 1.02577 18.0451 0.68636 17.987C0.0687494 17.8818 -0.208758 17.1623 0.18003 16.6765C0.244017 16.5966 0.321914 16.5269 0.395638 16.4551C2.85425 14.0391 5.31357 11.6231 7.77218 9.20703C7.83826 9.14212 7.90085 9.07379 8.01631 8.95354L8.01561 8.95285Z" fill="white"/>
</svg>
