<svg width="170" height="107" viewBox="0 0 170 107" fill="none" xmlns="http://www.w3.org/2000/svg">
<g clip-path="url(#clip0_464_2941)">
<mask id="mask0_464_2941" style="mask-type:luminance" maskUnits="userSpaceOnUse" x="17" y="60" width="44" height="32">
<path d="M17.3569 60.4039C22.6055 87.2782 44.7433 91.2813 44.7433 91.2813L60.7092 65.6388C60.7092 65.6388 35.1907 72.5533 17.9961 60.9708L17.3569 60.4039Z" fill="white"/>
</mask>
<g mask="url(#mask0_464_2941)">
<mask id="mask1_464_2941" style="mask-type:luminance" maskUnits="userSpaceOnUse" x="16" y="61" width="44" height="32">
<path d="M59.7444 61.5167H16.3921V92.317H59.7444V61.5167Z" fill="white"/>
</mask>
<g mask="url(#mask1_464_2941)">
<path d="M59.7444 61.5167H16.3921V92.317H59.7444V61.5167Z" fill="url(#paint0_linear_464_2941)"/>
</g>
</g>
<mask id="mask2_464_2941" style="mask-type:luminance" maskUnits="userSpaceOnUse" x="44" y="65" width="47" height="28">
<path d="M44.7451 91.2812C81.4639 99.1685 90.7749 65.3098 90.7749 65.3098C75.0221 77.5012 57.0249 71.6085 57.0249 71.6085L44.7451 91.2812Z" fill="white"/>
</mask>
<g mask="url(#mask2_464_2941)">
<mask id="mask3_464_2941" style="mask-type:luminance" maskUnits="userSpaceOnUse" x="44" y="65" width="47" height="35">
<path d="M90.439 65.9467H44.4092V99.7845H90.439V65.9467Z" fill="white"/>
</mask>
<g mask="url(#mask3_464_2941)">
<path d="M90.439 65.9467H44.4092V99.7845H90.439V65.9467Z" fill="url(#paint1_linear_464_2941)"/>
</g>
</g>
<mask id="mask4_464_2941" style="mask-type:luminance" maskUnits="userSpaceOnUse" x="17" y="60" width="44" height="20">
<path d="M17.3569 60.4039C18.3355 65.758 20.31 70.8878 23.1808 75.5347C29.0402 84.8147 56.3839 75.3387 53.7987 76.7594L60.7163 65.6388C60.7163 65.6388 35.1978 72.5533 18.0032 60.9708L17.3569 60.4039Z" fill="white"/>
</mask>
<g mask="url(#mask4_464_2941)">
<mask id="mask5_464_2941" style="mask-type:luminance" maskUnits="userSpaceOnUse" x="16" y="61" width="44" height="25">
<path d="M59.7444 61.0687H16.3921V85.5005H59.7444V61.0687Z" fill="white"/>
</mask>
<g mask="url(#mask5_464_2941)">
<path d="M59.7444 61.0687H16.3921V85.4795H59.7444V61.0687Z" fill="url(#paint2_linear_464_2941)"/>
</g>
</g>
<path d="M17.3584 60.4039C18.337 65.758 20.3114 70.8878 23.1823 75.5347C29.0416 84.8147 56.3854 75.3387 53.8002 76.7594L60.7178 65.6388C60.7178 65.6388 35.1993 72.5533 18.0047 60.9708L17.3584 60.4039Z" fill="white" stroke="#BCBEC0" stroke-width="0.823864"/>
<mask id="mask6_464_2941" style="mask-type:luminance" maskUnits="userSpaceOnUse" x="50" y="65" width="41" height="20">
<path d="M50.2012 82.582C50.2012 82.582 74.91 88.5867 81.7992 81.0003C85.8889 76.4549 88.9599 71.1108 90.812 65.3167C75.0591 77.5081 57.062 71.6154 57.062 71.6154L50.2012 82.582Z" fill="white"/>
</mask>
<g mask="url(#mask6_464_2941)">
<mask id="mask7_464_2941" style="mask-type:luminance" maskUnits="userSpaceOnUse" x="49" y="66" width="42" height="24">
<path d="M90.1657 66.1286H49.562V89.3776H90.1657V66.1286Z" fill="white"/>
</mask>
<g mask="url(#mask7_464_2941)">
<path d="M90.1657 66.1286H49.562V89.3776H90.1657V66.1286Z" fill="url(#paint3_linear_464_2941)"/>
</g>
</g>
<path d="M50.1992 82.5821C50.1992 82.5821 74.908 88.5868 81.7972 81.0004C85.8869 76.455 88.958 71.1108 90.81 65.3168C75.0572 77.5082 57.06 71.6154 57.06 71.6154L50.1992 82.5821Z" fill="white" stroke="#BCBEC0" stroke-width="0.823864"/>
<mask id="mask8_464_2941" style="mask-type:luminance" maskUnits="userSpaceOnUse" x="19" y="69" width="37" height="15">
<path d="M19.979 69.5719C17.9832 68.6971 34.7943 78.229 55.6466 73.841L49.4818 83.6389C49.4818 83.6389 29.5315 84.5977 24.5671 78.173C21.9037 74.7298 19.979 69.5579 19.979 69.5579" fill="white"/>
</mask>
<g mask="url(#mask8_464_2941)">
<mask id="mask9_464_2941" style="mask-type:luminance" maskUnits="userSpaceOnUse" x="19" y="70" width="38" height="17">
<path d="M56.8989 70.2648H19.2427V86.0464H56.8989V70.2648Z" fill="white"/>
</mask>
<g mask="url(#mask9_464_2941)">
<path d="M56.8989 70.2648H19.2427V86.0464H56.8989V70.2648Z" fill="url(#paint4_linear_464_2941)"/>
</g>
</g>
<mask id="mask10_464_2941" style="mask-type:luminance" maskUnits="userSpaceOnUse" x="48" y="75" width="39" height="13">
<path d="M53.2661 77.4594C53.2661 77.4594 66.5119 83.919 86.455 75.2618C86.455 75.2618 79.8499 84.0939 76.8315 85.2557C76.8315 85.2557 65.6454 90.6025 48.5005 85.0877L53.2661 77.4594Z" fill="white"/>
</mask>
<g mask="url(#mask10_464_2941)">
<mask id="mask11_464_2941" style="mask-type:luminance" maskUnits="userSpaceOnUse" x="48" y="75" width="39" height="16">
<path d="M86.6979 75.2337H48.7505V90.5674H86.6979V75.2337Z" fill="white"/>
</mask>
<g mask="url(#mask11_464_2941)">
<path d="M86.6979 75.2337H48.7505V90.5674H86.6979V75.2337Z" fill="url(#paint5_linear_464_2941)"/>
</g>
</g>
<path d="M92.0171 53.0136C92.0171 53.1326 92.0171 53.2516 92.0171 53.3775C92.0087 62.4706 88.6204 71.2457 82.4926 78.0444C76.3648 84.8432 67.9219 89.1947 58.7595 90.2765C49.5971 91.3583 40.35 89.0956 32.7656 83.9158C25.1812 78.7361 19.7849 70.9982 17.5966 62.1645C15.4084 53.3308 16.5796 44.0132 20.8891 35.9726C25.1985 27.932 32.3476 21.7254 40.9854 18.5257C49.6231 15.326 59.1511 15.3548 67.7687 18.6068C76.3863 21.8588 83.4965 28.1087 87.7557 36.1752H105.511L104.148 32.2701C101.939 31.5072 98.8921 31.7662 96.2216 32.2701C95.0888 30.1228 93.7875 28.066 92.3296 26.1184C93.9542 24.0684 95.1251 21.7058 95.7671 19.1829L92.3296 15.3407C89.9787 15.4527 87.2443 16.8314 84.9574 18.3011C82.8422 16.5086 80.5701 14.9044 78.1676 13.5071C78.8325 10.9942 78.9583 8.37226 78.5369 5.80875L73.9062 3.56923C71.7756 4.59101 69.8296 6.92851 68.3168 9.16803C65.4536 8.29066 62.5116 7.68602 59.5313 7.36242C59.1073 4.7813 58.1396 2.31625 56.6903 0.125973L51.4915 0C49.9787 1.79161 49.1548 4.73798 48.7074 7.40441C45.9559 7.73137 43.2393 8.29814 40.5895 9.09805C39.1602 6.86625 37.2673 4.95811 35.0355 3.49925L30.2273 5.38884C29.5526 7.63536 29.9858 10.6727 30.6463 13.2971C28.2629 14.6607 26.0052 16.2274 23.8992 17.9791C21.6833 16.5112 19.1787 15.5192 16.5483 15.0678L12.8977 18.679C13.1818 21.0095 14.8011 23.6409 16.4489 25.7965C14.8336 27.9323 13.4079 30.2012 12.1875 32.578C9.56471 32.0766 6.86424 32.1243 4.26136 32.718L2.34375 37.442C3.55114 39.4855 6.07955 41.2911 8.47301 42.6138C7.90444 44.9395 7.51976 47.3051 7.32244 49.6893C4.68777 50.2007 2.19246 51.2548 0 52.7827L0 57.8776C1.91051 59.3262 4.97159 60.0401 7.68466 60.39C8.02048 62.616 8.52135 64.8148 9.18324 66.9686C6.91647 68.3894 4.98018 70.2663 3.50142 72.4764L5.43324 77.2004C7.72017 77.8653 10.8097 77.4244 13.4801 76.7665C14.8215 79.0436 16.3563 81.2045 18.0682 83.2261C16.5574 85.4025 15.5289 87.8683 15.0497 90.4626L18.7003 94.0738C21.0582 93.8078 23.7287 92.2192 25.9233 90.5745C27.7485 91.9302 29.6711 93.1535 31.6761 94.2347C31.0881 96.7978 31.0542 99.4542 31.5767 102.031L36.321 104.061C38.4091 102.962 40.2912 100.561 41.7188 98.2379C43.9943 98.8549 46.3139 99.3018 48.6577 99.5746C49.0773 102.163 50.0453 104.636 51.4986 106.832L56.669 106.986C58.1889 105.208 59.0199 102.276 59.5099 99.6236C61.8841 99.3645 64.2347 98.927 66.5412 98.3149C67.9079 100.55 69.7345 102.479 71.9034 103.977L76.7543 102.213C77.4645 100.009 77.1591 97.0061 76.5838 94.3817C78.2804 93.4833 79.9194 92.4829 81.4915 91.3864C83.5497 93.0216 85.9328 94.2136 88.4872 94.8856L92.4361 91.5823C92.3509 89.2728 91.0156 86.5644 89.5384 84.2969C91.3036 82.333 92.8978 80.226 94.304 77.9982C96.8425 78.7083 99.5037 78.8871 102.116 78.5231L104.453 73.9741C103.466 71.8745 101.165 69.915 98.9347 68.3753C99.7015 66.1371 100.293 63.8442 100.703 61.5168C103.32 61.244 105.85 60.436 108.132 59.1443L108.58 54.0634C108.134 53.6584 107.646 53.3018 107.124 52.9996L92.0171 53.0136ZM39.4602 54.9942H36.321V65.303H38.4517V61.2018H39.0625C40.483 61.2018 41.4134 60.9849 41.9034 60.558C42.3935 60.1311 42.6136 59.2913 42.6136 58.0455C42.7008 57.2022 42.4454 56.3592 41.9034 55.701C41.2206 55.1683 40.3558 54.9152 39.4886 54.9942H39.4602ZM40.1705 59.3402C40.0107 59.465 39.8272 59.5571 39.6309 59.6111C39.4346 59.6652 39.2293 59.6802 39.027 59.6552H38.4233V56.5409H39.0625C39.263 56.5171 39.4663 56.5334 39.6603 56.5887C39.8543 56.644 40.0351 56.7372 40.1918 56.8628C40.4341 57.2237 40.5374 57.6581 40.483 58.0875C40.5347 58.5207 40.4398 58.9586 40.2131 59.3332L40.1705 59.3402ZM42.5071 26.7203V26.2164C42.5698 25.4292 42.3146 24.6495 41.7969 24.0468C41.4854 23.7657 41.1183 23.5509 40.7187 23.4161C40.319 23.2812 39.8955 23.2291 39.4744 23.263C39.0143 23.215 38.549 23.2652 38.1103 23.4101C37.6716 23.555 37.2697 23.7913 36.9318 24.1028C36.4418 24.6627 36.2216 25.6285 36.2216 27.0002V30.1845C36.2216 31.5469 36.4583 32.5057 36.9318 33.0609C37.2699 33.3721 37.6719 33.6081 38.1105 33.753C38.5492 33.8978 39.0143 33.9482 39.4744 33.9007C39.9124 33.9448 40.3549 33.8978 40.7733 33.7628C41.1917 33.6278 41.5767 33.4077 41.9034 33.1169C42.4587 32.3762 42.7122 31.4572 42.6136 30.5414V30.2335H40.483V30.5344C40.517 30.9961 40.4391 31.459 40.2557 31.8851C40.1932 32.0189 40.093 32.1322 39.9672 32.2116C39.8413 32.291 39.6949 32.3332 39.5455 32.333C39.3613 32.3476 39.1772 32.3048 39.0192 32.2106C38.8612 32.1164 38.7372 31.9756 38.6648 31.8082C38.4615 31.2043 38.3771 30.5677 38.4162 29.9326V26.7552C38.3793 26.2447 38.4695 25.733 38.679 25.2646C38.7654 25.1161 38.8925 24.9947 39.0458 24.9142C39.199 24.8338 39.3722 24.7975 39.5455 24.8097C39.6853 24.8032 39.824 24.8377 39.944 24.9086C40.064 24.9796 40.1601 25.084 40.2202 25.2086C40.3911 25.5862 40.462 26.0004 40.4261 26.4123V26.7203H42.5071ZM49.9077 33.1029C50.4683 32.3115 50.7205 31.3473 50.6179 30.3875V26.1254C50.6487 25.7298 50.5923 25.3324 50.4525 24.9603C50.3128 24.5882 50.093 24.2503 49.8082 23.9698C49.108 23.4502 48.2389 23.2012 47.3651 23.27C46.4909 23.1979 45.6206 23.4472 44.9219 23.9698C44.6371 24.2503 44.4173 24.5882 44.2776 24.9603C44.1378 25.3324 44.0814 25.7298 44.1122 26.1254V30.3735C44.0077 31.3335 44.26 32.2983 44.8224 33.0889C45.1634 33.3847 45.5628 33.6076 45.9955 33.7438C46.4282 33.8799 46.8849 33.9262 47.3367 33.8797C47.8038 33.9395 48.2785 33.9004 48.7292 33.7653C49.1798 33.6301 49.5961 33.4019 49.9503 33.0959L49.9077 33.1029ZM46.5128 31.9341C46.3152 31.475 46.2323 30.9757 46.2713 30.4785V26.2164C46.2475 25.8453 46.3473 25.4767 46.5554 25.1666C46.6612 25.0533 46.7896 24.9629 46.9327 24.9011C47.0757 24.8393 47.2302 24.8073 47.3864 24.8073C47.5426 24.8073 47.6971 24.8393 47.8401 24.9011C47.9831 24.9629 48.1116 25.0533 48.2173 25.1666C48.4279 25.4756 48.5279 25.845 48.5014 26.2164V30.4645C48.5519 30.9589 48.4813 31.4581 48.2955 31.9201C48.1909 32.0473 48.0589 32.1499 47.909 32.2203C47.7591 32.2908 47.5951 32.3273 47.429 32.3273C47.2629 32.3273 47.0989 32.2908 46.949 32.2203C46.7991 32.1499 46.667 32.0473 46.5625 31.9201L46.5128 31.9341ZM105.341 49.5214V40.7382H107.599V39.1916H100.938V40.7312H103.196V49.5144L105.341 49.5214ZM99.8225 42.5229V41.991C99.8801 41.5874 99.8414 41.1761 99.7093 40.7899C99.5772 40.4037 99.3554 40.0532 99.0615 39.7664C98.7677 39.4796 98.41 39.2643 98.0168 39.1378C97.6236 39.0113 97.2059 38.977 96.7969 39.0376C96.3368 38.9901 95.8717 39.0405 95.433 39.1854C94.9943 39.3302 94.5924 39.5663 94.2543 39.8774C93.7642 40.4373 93.5441 41.4031 93.5441 42.7678V45.9521C93.5441 47.3145 93.7808 48.2733 94.2543 48.8285C94.5921 49.1401 94.9941 49.3763 95.4328 49.5212C95.8715 49.6661 96.3367 49.7163 96.7969 49.6683C97.2304 49.7113 97.6683 49.665 98.0827 49.5325C98.4972 49.4 98.8792 49.1841 99.2046 48.8985C99.7593 48.1575 100.013 47.2388 99.9148 46.323V46.0151H97.7841V46.323C97.8201 46.7848 97.7421 47.2482 97.5568 47.6738C97.495 47.8081 97.3951 47.9219 97.269 48.0014C97.143 48.0808 96.9963 48.1226 96.8466 48.1217C96.6595 48.1377 96.4721 48.0948 96.3113 47.9992C96.1505 47.9036 96.0246 47.7603 95.9517 47.5898C95.7495 46.9856 95.6651 46.3492 95.7031 45.7142V42.5439C95.6667 42.0326 95.7594 41.5205 95.973 41.0532C96.0588 40.9042 96.1858 40.7823 96.3392 40.7017C96.4926 40.6212 96.6662 40.5853 96.8395 40.5983C96.9793 40.5918 97.118 40.6263 97.238 40.6972C97.3581 40.7682 97.4542 40.8726 97.5142 40.9972C97.6831 41.3729 97.7539 41.7843 97.7202 42.1939V42.5019L99.8225 42.5229ZM166.797 38.4287C167.083 38.4489 167.37 38.4129 167.642 38.3228C167.914 38.2327 168.165 38.0903 168.381 37.9039C168.57 37.6956 168.716 37.4521 168.808 37.1877C168.901 36.9233 168.939 36.6433 168.92 36.3642H167.5C167.524 36.6513 167.467 36.9394 167.337 37.197C167.266 37.2725 167.181 37.3328 167.085 37.374C166.99 37.4152 166.887 37.4365 166.783 37.4365C166.679 37.4365 166.576 37.4152 166.48 37.374C166.385 37.3328 166.299 37.2725 166.229 37.197C166.104 36.9376 166.05 36.6505 166.072 36.3642H164.652C164.633 36.6433 164.671 36.9233 164.764 37.1877C164.857 37.4521 165.002 37.6956 165.192 37.9039C165.416 38.0952 165.679 38.2382 165.962 38.3238C166.246 38.4093 166.545 38.4356 166.84 38.4007L166.797 38.4287ZM86.0796 39.7585C85.7965 40.0416 85.578 40.3809 85.4384 40.7538C85.2988 41.1267 85.2413 41.5246 85.2699 41.921V46.1901C85.1666 47.15 85.4189 48.1143 85.9801 48.9055C86.7171 49.4201 87.5981 49.6965 88.5014 49.6965C89.4047 49.6965 90.2857 49.4201 91.0227 48.9055C91.5846 48.1146 91.8369 47.15 91.733 46.1901V41.914C91.7639 41.5168 91.7069 41.1176 91.5659 40.7442C91.4248 40.3709 91.2032 40.0321 90.9162 39.7515C90.1886 39.2832 89.3385 39.0339 88.4695 39.0339C87.6005 39.0339 86.7503 39.2832 86.0227 39.7515L86.0796 39.7585ZM89.3537 40.9552C89.5643 41.2642 89.6643 41.6336 89.6378 42.005V46.2531C89.6754 46.7509 89.5901 47.2504 89.3892 47.7087C89.2847 47.8372 89.1523 47.9408 89.0017 48.0121C88.8511 48.0833 88.6862 48.1203 88.5192 48.1203C88.3521 48.1203 88.1872 48.0833 88.0367 48.0121C87.8861 47.9408 87.7536 47.8372 87.6492 47.7087C87.4515 47.2496 87.3687 46.7503 87.4077 46.2531V41.991C87.3807 41.6206 87.478 41.2517 87.6847 40.9412C87.7904 40.8279 87.9189 40.7375 88.0619 40.6757C88.205 40.6139 88.3594 40.5819 88.5156 40.5819C88.6718 40.5819 88.8263 40.6139 88.9693 40.6757C89.1124 40.7375 89.2408 40.8279 89.3466 40.9412L89.3537 40.9552ZM72.8764 59.0533V65.303H74.6307V54.9942H71.7898L70.4759 61.2928C70.3812 61.7594 70.2794 62.2843 70.1705 62.8675C70.0639 63.4624 70 63.8403 69.9787 64.0222C69.9787 63.8613 70.0142 63.4834 70.0284 62.8815C70.0426 62.2796 70.0284 61.7407 70.0284 61.2508V54.9942H68.3097V65.303H71.1506L72.4645 59.0043C72.5639 58.5378 72.6657 58.0129 72.7699 57.4297C72.8741 56.8464 72.938 56.4639 72.9617 56.2819C72.9617 56.4289 72.9261 56.8068 72.9119 57.4087C72.8977 58.0105 72.8764 58.5564 72.8764 59.0533ZM81.2642 59.0533V65.303H83.0185V54.9942H80.1776L78.8636 61.2928C78.7642 61.7594 78.6624 62.2843 78.5583 62.8675C78.4517 63.4624 78.3878 63.8403 78.3665 64.0222C78.3665 63.8589 78.3831 63.4787 78.4162 62.8815C78.4162 62.2796 78.4162 61.7407 78.4162 61.2508V54.9942H76.7046V65.303H79.5455L80.8594 59.0043C80.9588 58.5378 81.0606 58.0129 81.1648 57.4297C81.2713 56.8348 81.3352 56.4569 81.3565 56.2819C81.3565 56.4289 81.321 56.8068 81.3068 57.4087C81.2926 58.0105 81.2642 58.5564 81.2642 59.0533ZM45.6037 49.5144V39.1916H42.6136L40.9588 47.0789L39.2969 39.1916H36.2926V49.5144H38.0469V40.8152L39.8793 49.5074H42.0099L43.8494 40.8712V49.5144H45.6037ZM83.2955 39.1916H81.1648V43.4607H79.1193V39.1916H76.9886V49.5144H79.1193V45.0003H81.1506V49.5144H83.2813L83.2955 39.1916ZM120.121 39.0306C119.249 38.9603 118.382 39.2095 117.685 39.7305C117.399 40.0115 117.178 40.3504 117.038 40.7239C116.898 41.0973 116.843 41.4962 116.875 41.893V46.1901C116.772 47.1499 117.025 48.1141 117.585 48.9055C118.324 49.4197 119.206 49.6959 120.11 49.6959C121.014 49.6959 121.896 49.4197 122.635 48.9055C123.194 48.1135 123.446 47.1498 123.345 46.1901V41.914C123.376 41.5168 123.318 41.1178 123.177 40.7445C123.036 40.3712 122.815 40.0324 122.528 39.7515C121.839 39.2375 120.984 38.9865 120.121 39.0446V39.0306ZM121.236 46.2461C121.274 46.7433 121.192 47.2425 120.994 47.7018C120.901 47.843 120.77 47.9563 120.616 48.0291C120.462 48.1019 120.291 48.1315 120.121 48.1147C119.952 48.1318 119.781 48.1023 119.628 48.0294C119.475 47.9564 119.346 47.843 119.254 47.7018C119.056 47.2427 118.973 46.7434 119.013 46.2461V41.991C118.987 41.6207 119.084 41.2522 119.29 40.9412C119.396 40.8279 119.524 40.7375 119.667 40.6757C119.81 40.6139 119.965 40.5819 120.121 40.5819C120.277 40.5819 120.431 40.6139 120.574 40.6757C120.717 40.7375 120.846 40.8279 120.952 40.9412C121.162 41.2505 121.262 41.6197 121.236 41.991V46.2461ZM133.146 40.7312H135.405V49.5144H137.536V40.7382H139.794V39.1916H133.132L133.146 40.7312ZM127.536 45.4902C127.436 45.9568 127.334 46.4817 127.23 47.0649C127.124 47.6598 127.06 48.0377 127.045 48.2126C127.045 48.0517 127.081 47.6738 127.095 47.0719C127.109 46.47 127.095 45.9311 127.095 45.4412V39.1916H125.355V49.5144H128.196L129.51 43.2157C129.609 42.7491 129.711 42.2243 129.815 41.6411C129.92 41.0578 129.983 40.6753 130.007 40.4933C130.007 40.6473 129.972 41.0182 129.957 41.6201C129.943 42.2219 129.957 42.7678 129.957 43.2647V49.5144H131.712V39.1916H128.871L127.536 45.4902ZM143.416 44.9933H146.392V43.4607H143.416V40.7382H146.484V39.1916H141.271V49.5144H146.548V47.9747H143.409L143.416 44.9933ZM112.216 39.1916H109.048V49.5144H111.179V45.4132H111.783C113.203 45.4132 114.15 45.1963 114.624 44.7624C115.097 44.3285 115.334 43.491 115.334 42.2499C115.422 41.4066 115.166 40.5633 114.624 39.9054C113.944 39.3713 113.082 39.1157 112.216 39.1916ZM112.926 43.5376C112.766 43.6624 112.583 43.7545 112.387 43.8085C112.19 43.8626 111.985 43.8776 111.783 43.8526H111.179V40.7522H111.783C111.983 40.7289 112.186 40.7454 112.38 40.8007C112.574 40.856 112.755 40.949 112.912 41.0742C113.15 41.4291 113.256 41.8547 113.21 42.2779C113.261 42.7195 113.161 43.1652 112.926 43.5446V43.5376ZM167.173 39.1916L165.859 45.4902C165.76 45.9568 165.658 46.4817 165.554 47.0649C165.45 47.6481 165.386 48.0307 165.362 48.2126C165.362 48.054 165.381 47.6738 165.419 47.0719C165.419 46.477 165.419 45.9311 165.419 45.4412V39.1916H163.665V49.5144H166.506L167.82 43.2157C167.919 42.7491 168.021 42.2243 168.125 41.6411C168.232 41.0532 168.295 40.6683 168.317 40.4933C168.317 40.6473 168.281 41.0182 168.267 41.6201C168.253 42.2219 168.267 42.7678 168.267 43.2647V49.5144H170.021V39.1916H167.173ZM148.615 46.8899C148.636 47.1566 148.58 47.4238 148.452 47.6598C148.392 47.7401 148.312 47.8041 148.22 47.8457C148.128 47.8873 148.027 47.9052 147.926 47.8977H147.727V49.6893H148.097C148.464 49.7224 148.834 49.681 149.185 49.5679C149.535 49.4548 149.859 49.2722 150.135 49.0315C150.601 48.4324 150.824 47.684 150.76 46.9319V40.7382H152.465V49.5144H154.595V39.1916H148.601L148.615 46.8899ZM158.8 44.9933H161.776V43.4607H158.8V40.7382H161.868V39.1916H156.655V49.5144H161.932V47.9747H158.8V44.9933ZM52.3651 49.5144H54.4318L52.0668 39.1916H49.5455L47.1733 49.5144H49.2401L49.6662 47.2888H51.9531L52.3651 49.5144ZM49.9503 45.7492L50.8168 41.1302L51.6619 45.7492H49.9503ZM55.7386 65.4639C56.1722 65.5069 56.6101 65.4606 57.0245 65.3281C57.439 65.1956 57.821 64.9797 58.1463 64.6941C58.6998 63.9525 58.953 63.0343 58.8565 62.1187V61.8107H56.7259V62.1116C56.759 62.571 56.6811 63.0315 56.4986 63.4554C56.4361 63.5891 56.336 63.7025 56.2101 63.7818C56.0842 63.8612 55.9378 63.9034 55.7884 63.9033C55.6044 63.9168 55.4208 63.8735 55.263 63.7794C55.1051 63.6853 54.9809 63.5452 54.9077 63.3784C54.7044 62.7745 54.62 62.1379 54.6591 61.5028V58.3255C54.6222 57.8149 54.7124 57.3032 54.9219 56.8348C55.0083 56.6863 55.1354 56.5649 55.2887 56.4844C55.4419 56.404 55.6151 56.3677 55.7884 56.3799C55.9282 56.3734 56.0669 56.4079 56.1869 56.4789C56.3069 56.5498 56.403 56.6542 56.4631 56.7788C56.632 57.1545 56.7028 57.5659 56.669 57.9755V58.2835H58.7997V57.7796C58.859 57.3757 58.8213 56.9638 58.6897 56.5769C58.5582 56.1899 58.3364 55.8388 58.0422 55.5516C57.748 55.2645 57.3896 55.0492 56.9957 54.9233C56.6018 54.7973 56.1834 54.764 55.7742 54.8262C55.314 54.7782 54.8488 54.8284 54.41 54.9733C53.9713 55.1182 53.5694 55.3545 53.2315 55.666C52.758 56.2259 52.5213 57.1894 52.5213 58.5564V61.7407C52.5213 63.1031 52.758 64.0619 53.2315 64.6171C53.5647 64.9252 53.9605 65.1601 54.3927 65.3061C54.8249 65.4521 55.2837 65.5059 55.7386 65.4639ZM52.5568 23.417V33.7257H54.6875V29.2117H56.2287V30.3805C56.1536 31.3278 56.4454 32.268 57.0455 33.0119C57.7305 33.5768 58.5954 33.8864 59.4886 33.8864C60.3819 33.8864 61.2468 33.5768 61.9318 33.0119C62.5306 32.2674 62.8223 31.3277 62.7486 30.3805V26.1254C62.778 25.7293 62.7202 25.3317 62.5793 24.9597C62.4383 24.5876 62.2175 24.25 61.9318 23.9698C61.2053 23.5022 60.3564 23.2532 59.4886 23.2532C58.6209 23.2532 57.7719 23.5022 57.0455 23.9698C56.7591 24.2494 56.5377 24.587 56.3967 24.9592C56.2556 25.3313 56.1983 25.7292 56.2287 26.1254V27.6721H54.6875V23.417H52.5568ZM58.3878 26.2164C58.3505 25.8343 58.4349 25.4502 58.6293 25.1176C58.7381 25.0033 58.8723 24.9153 59.0214 24.8607C59.1705 24.8061 59.3304 24.7862 59.4886 24.8027C59.6491 24.7851 59.8114 24.8043 59.963 24.859C60.1146 24.9136 60.2512 25.0021 60.3622 25.1176C60.5561 25.4504 60.6405 25.8343 60.6037 26.2164V30.4645C60.6449 30.9612 60.5645 31.4604 60.3693 31.9201C60.2648 32.0473 60.1327 32.1499 59.9828 32.2203C59.8329 32.2908 59.6689 32.3273 59.5028 32.3273C59.3368 32.3273 59.1728 32.2908 59.0229 32.2203C58.873 32.1499 58.7409 32.0473 58.6364 31.9201C58.4382 31.4611 58.3554 30.9618 58.3949 30.4645L58.3878 26.2164ZM47.4219 65.4639C47.8759 65.5111 48.3349 65.4651 48.77 65.3291C49.2051 65.193 49.607 64.9696 49.9503 64.6731C50.5109 63.8817 50.7631 62.9175 50.6605 61.9577V57.7096C50.6918 57.314 50.6356 56.9164 50.4958 56.5443C50.356 56.1721 50.136 55.8343 49.8509 55.5541C49.1521 55.0314 48.2818 54.7821 47.4077 54.8542C46.5335 54.7821 45.6632 55.0314 44.9645 55.5541C44.6798 55.8346 44.46 56.1724 44.3202 56.5445C44.1805 56.9166 44.124 57.314 44.1548 57.7096V61.9577C44.0503 62.9177 44.3026 63.8825 44.8651 64.6731C45.2108 64.9748 45.6172 65.2012 46.0578 65.3374C46.4984 65.4737 46.9632 65.5168 47.4219 65.4639ZM46.3139 57.7656C46.2901 57.3945 46.3899 57.0259 46.598 56.7158C46.7038 56.6026 46.8322 56.5122 46.9753 56.4503C47.1183 56.3885 47.2728 56.3566 47.429 56.3566C47.5852 56.3566 47.7397 56.3885 47.8827 56.4503C48.0257 56.5122 48.1542 56.6026 48.2599 56.7158C48.4706 57.0248 48.5705 57.3943 48.544 57.7656V62.0137C48.5863 62.5209 48.5009 63.0305 48.2955 63.4974C48.1909 63.6245 48.0589 63.7271 47.909 63.7975C47.7591 63.868 47.5951 63.9045 47.429 63.9045C47.2629 63.9045 47.0989 63.868 46.949 63.7975C46.7991 63.7271 46.667 63.6245 46.5625 63.4974C46.3643 63.0383 46.2815 62.539 46.321 62.0417L46.3139 57.7656ZM63.5653 65.4639C63.9989 65.5069 64.4368 65.4606 64.8512 65.3281C65.2657 65.1956 65.6477 64.9797 65.973 64.6941C66.5277 63.9531 66.7811 63.0344 66.6833 62.1187V61.8107H64.5526V62.1116C64.588 62.5704 64.5125 63.0309 64.3324 63.4554C64.2699 63.5891 64.1698 63.7025 64.0439 63.7818C63.918 63.8612 63.7716 63.9034 63.6222 63.9033C63.4382 63.9168 63.2546 63.8735 63.0968 63.7794C62.9389 63.6853 62.8148 63.5452 62.7415 63.3784C62.5387 62.7744 62.4543 62.1379 62.4929 61.5028V58.3255C62.4588 57.8144 62.5514 57.3027 62.7628 56.8348C62.8492 56.6863 62.9763 56.5649 63.1296 56.4844C63.2829 56.404 63.456 56.3677 63.6293 56.3799C63.7691 56.3734 63.9078 56.4079 64.0278 56.4789C64.1479 56.5498 64.2439 56.6542 64.304 56.7788C64.472 57.1548 64.5428 57.566 64.5099 57.9755V58.2835H66.6406V57.7796C66.7041 56.9923 66.4488 56.2123 65.9304 55.61C65.6189 55.3289 65.2518 55.1142 64.8522 54.9793C64.4526 54.8444 64.029 54.7923 63.608 54.8262C63.1478 54.7782 62.6826 54.8284 62.2439 54.9733C61.8051 55.1182 61.4032 55.3545 61.0653 55.666C60.5919 56.2259 60.3551 57.1894 60.3551 58.5564V61.7407C60.3551 63.1031 60.5919 64.0619 61.0653 64.6171C61.3977 64.9243 61.7923 65.1586 62.2232 65.3046C62.6541 65.4505 63.1116 65.5049 63.5653 65.4639ZM66.5128 39.1916H64.3821V47.9747H62.3367V39.1916H60.206V47.9747H58.1605V39.1916H56.0298V49.5144H66.5128V39.1916ZM70.2344 33.2079C70.5173 32.9139 70.7338 32.5642 70.8697 32.1818C71.0056 31.7994 71.0577 31.393 71.0227 30.9893V30.7024C71.0641 30.3366 71.0219 29.9663 70.8989 29.6187C70.776 29.2711 70.5757 28.9551 70.3125 28.6938C70.1354 28.5644 69.9389 28.4629 69.7301 28.3929C69.9553 28.326 70.1651 28.2166 70.348 28.071C70.7836 27.6977 71.0014 26.9815 71.0014 25.9224V25.6635C71.0292 25.3237 70.9725 24.9824 70.8364 24.669C70.7003 24.3557 70.4888 24.0797 70.2202 23.8649C69.501 23.4228 68.658 23.217 67.8125 23.277C67.3697 23.2347 66.9228 23.2804 66.4982 23.4114C66.0736 23.5425 65.6801 23.7562 65.3409 24.0398C65.0623 24.3639 64.8553 24.7416 64.733 25.1489C64.6108 25.5562 64.5759 25.9841 64.6307 26.4053V26.7133H66.7614V26.4053C66.7212 25.9872 66.8051 25.5666 67.0028 25.1946C67.0851 25.0654 67.2009 24.9603 67.3383 24.8901C67.4756 24.82 67.6296 24.7874 67.7841 24.7957C67.9326 24.7815 68.0825 24.7978 68.2243 24.8436C68.3661 24.8893 68.4967 24.9636 68.608 25.0616C68.7941 25.3303 68.8795 25.6544 68.8494 25.9784V26.2374C68.8885 26.6072 68.8143 26.9802 68.6364 27.3081C68.5234 27.4123 68.3883 27.4902 68.2408 27.5363C68.0933 27.5823 67.9373 27.5952 67.7841 27.5741H66.7188V29.1277H67.6847C67.8504 29.1084 68.0184 29.1241 68.1776 29.1735C68.3367 29.223 68.4834 29.3052 68.608 29.4147C68.8048 29.7361 68.8896 30.1121 68.8494 30.4855V30.7934C68.8895 31.2131 68.8004 31.635 68.5938 32.0041C68.4797 32.1263 68.3378 32.2199 68.1796 32.2771C68.0215 32.3343 67.8518 32.3535 67.6847 32.333C67.5125 32.3435 67.3407 32.3072 67.188 32.2283C67.0352 32.1493 66.9074 32.0306 66.8182 31.8851C66.6034 31.4681 66.51 31.0006 66.5483 30.5344V30.2335H64.4176V30.5414C64.3044 31.4583 64.5593 32.3825 65.1278 33.1169C65.4826 33.4055 65.8917 33.6221 66.3318 33.7542C66.7718 33.8863 67.234 33.9314 67.6918 33.8867C68.5936 33.9703 69.496 33.7319 70.2344 33.2149V33.2079ZM74.9077 39.1916H72.0668L70.7529 45.4902C70.6534 45.9568 70.5516 46.4817 70.4474 47.0649C70.3409 47.6598 70.277 48.0377 70.2557 48.2126C70.2557 48.0517 70.2912 47.6738 70.3054 47.0719C70.3196 46.47 70.3054 45.9311 70.3054 45.4412V39.1916H68.5867V49.5144H71.4276L72.7415 43.2157C72.8409 42.7491 72.9451 42.2243 73.054 41.6411C73.1629 41.0578 73.2244 40.6753 73.2386 40.4933C73.2386 40.6473 73.2031 41.0182 73.1889 41.6201C73.1747 42.2219 73.1889 42.7678 73.1889 43.2647V49.5144H74.9432L74.9077 39.1916Z" fill="#005CA8"/>
</g>
<defs>
<linearGradient id="paint0_linear_464_2941" x1="16.2194" y1="76.2787" x2="59.5716" y2="76.2787" gradientUnits="userSpaceOnUse">
<stop stop-color="#B01116"/>
<stop offset="0.65" stop-color="#ED1C24"/>
<stop offset="1" stop-color="#ED1C24"/>
</linearGradient>
<linearGradient id="paint1_linear_464_2941" x1="44.3347" y1="81.3748" x2="90.3646" y2="81.3748" gradientUnits="userSpaceOnUse">
<stop stop-color="#B01116"/>
<stop offset="0.65" stop-color="#ED1C24"/>
<stop offset="1" stop-color="#ED1C24"/>
</linearGradient>
<linearGradient id="paint2_linear_464_2941" x1="16.2194" y1="70.099" x2="59.5716" y2="70.099" gradientUnits="userSpaceOnUse">
<stop stop-color="#BCBDC0"/>
<stop offset="0.65" stop-color="white"/>
<stop offset="1" stop-color="white"/>
</linearGradient>
<linearGradient id="paint3_linear_464_2941" x1="49.4671" y1="76.7198" x2="90.0708" y2="76.7198" gradientUnits="userSpaceOnUse">
<stop stop-color="#BCBDC0"/>
<stop offset="0.65" stop-color="white"/>
<stop offset="1" stop-color="white"/>
</linearGradient>
<linearGradient id="paint4_linear_464_2941" x1="20.9785" y1="78.8351" x2="56.8094" y2="78.8351" gradientUnits="userSpaceOnUse">
<stop stop-color="#00377B"/>
<stop offset="0.01" stop-color="#00377B"/>
<stop offset="0.52" stop-color="#034EA2"/>
<stop offset="1" stop-color="#034EA2"/>
</linearGradient>
<linearGradient id="paint5_linear_464_2941" x1="48.5982" y1="80.6536" x2="86.5457" y2="80.6536" gradientUnits="userSpaceOnUse">
<stop stop-color="#00377B"/>
<stop offset="0.01" stop-color="#00377B"/>
<stop offset="0.52" stop-color="#034EA2"/>
<stop offset="1" stop-color="#034EA2"/>
</linearGradient>
<clipPath id="clip0_464_2941">
<rect width="170" height="107" fill="white"/>
</clipPath>
</defs>
</svg>
