<svg width="30" height="30" viewBox="0 0 30 30" fill="none" xmlns="http://www.w3.org/2000/svg">
<g clip-path="url(#clip0_176_2282)">
<path d="M22.6362 30C21.9033 29.8423 21.1609 29.7205 20.4405 29.5194C18.9549 29.1055 17.5715 28.4407 16.241 27.6732C12.4664 25.4968 9.24084 22.6629 6.37845 19.4027C4.52164 17.2872 2.89932 15.0088 1.64749 12.4817C0.877124 10.9268 0.270685 9.31247 0.063393 7.57781C-0.0667157 6.48887 -0.031432 5.40654 0.50444 4.41006C0.672773 4.09601 0.892561 3.79662 1.14102 3.54127C2.01282 2.64385 2.91623 1.77725 3.79097 0.883502C5.00532 -0.356592 6.89006 -0.228914 8.03678 0.885703C9.40329 2.21459 10.747 3.56621 12.0856 4.92371C13.2647 6.11905 13.2742 7.91095 12.1032 9.00135C11.8533 9.23396 11.5328 9.41887 11.2131 9.54508C10.3949 9.86721 9.74878 10.3574 9.393 11.18C9.15557 11.7281 9.12396 12.2872 9.27833 12.8662C9.71423 14.4952 10.6412 15.8358 11.7548 17.0612C12.914 18.3365 14.2261 19.424 15.7874 20.1827C16.4755 20.5166 17.1834 20.8138 17.9772 20.7103C19.0534 20.5702 19.873 20.0521 20.2986 19.0278C20.5618 18.3938 20.8727 17.8134 21.4777 17.4347C22.6112 16.7266 24.0086 16.855 25.009 17.828C26.4174 19.1973 27.8119 20.5827 29.1806 21.9915C30.3023 23.1458 30.2604 24.9868 29.1232 26.1418C28.225 27.0539 27.3105 27.9513 26.4064 28.8575C25.7647 29.4996 24.9767 29.8254 24.0894 29.9457C24.0144 29.956 23.9424 29.9824 23.8689 30.0015H22.6362V30Z" fill="#009BDA"/>
</g>
<defs>
<clipPath id="clip0_176_2282">
<rect width="30" height="30" fill="white"/>
</clipPath>
</defs>
</svg>
