<svg width="60" height="66" viewBox="0 0 60 66" fill="none" xmlns="http://www.w3.org/2000/svg">
<g clip-path="url(#clip0_291_6364)">
<path d="M3.77526e-05 19.7829C0.0937275 18.4161 0.165373 17.0476 0.286618 15.6827C0.378471 14.6512 0.799156 14.2335 1.82239 14.0759C9.3635 12.9217 16.3167 10.2396 22.5793 5.90489C24.7139 4.42641 26.6557 2.66212 28.6397 0.976611C29.7162 0.0605734 30.3849 0.0129394 31.4192 1.00226C38.7068 7.98063 47.4089 12.1779 57.3088 13.9056C59.7686 14.3343 59.7392 14.8766 59.8678 16.8039C60.4538 25.5924 59.1036 34.0712 55.6058 42.158C51.41 51.8588 44.7415 59.3117 35.1245 63.9652C33.7504 64.6302 32.2936 65.1359 30.8405 65.6141C30.339 65.7789 29.6887 65.7661 29.1816 65.6049C21.0343 63.0143 14.6726 57.9798 9.61334 51.2176C5.23748 45.3678 2.62151 38.743 1.15922 31.6364C0.356426 27.7249 -0.0164957 23.775 3.77526e-05 19.7829ZM3.32694 17.0347C3.30122 17.2436 3.26632 17.4231 3.25713 17.6045C3.0422 21.7963 3.26264 25.9606 4.04339 30.0883C5.4469 37.51 8.14186 44.3821 12.8851 50.3455C17.1967 55.7685 22.4892 59.9035 29.0641 62.3017C29.7217 62.5417 30.2967 62.56 30.9672 62.3145C37.8176 59.8045 43.3343 55.4992 47.6422 49.7043C54.7369 40.161 57.2757 29.2767 56.8054 17.5587C56.7834 17.0109 56.4784 16.9468 56.0834 16.8717C47.5871 15.2796 39.9027 11.8793 33.0743 6.58276C32.0309 5.77482 31.0426 4.89725 30.0065 4.03434C22.3827 10.9486 13.4491 15.1312 3.32694 17.0347Z" fill="#009BDA"/>
<path d="M26.0863 37.7296C29.1027 34.7214 32.0677 31.7662 35.0309 28.8092C36.247 27.5964 37.4577 26.3799 38.6775 25.1744C39.4674 24.3939 40.3712 24.339 41.0454 25.0077C41.7104 25.6672 41.6664 26.5998 40.893 27.3729C36.3775 31.8853 31.8565 36.3959 27.33 40.8991C26.4886 41.7364 25.6528 41.7327 24.8114 40.8991C22.9247 39.0322 21.0473 37.1562 19.1716 35.2765C18.3964 34.4997 18.3339 33.5745 18.9861 32.9094C19.6456 32.2389 20.6082 32.3048 21.4073 33.0963C22.7906 34.4649 24.1629 35.8426 25.5425 37.2148C25.7024 37.3742 25.8714 37.5263 26.0845 37.7296H26.0863Z" fill="#009BDA"/>
</g>
<defs>
<clipPath id="clip0_291_6364">
<rect width="60" height="65.4545" fill="white" transform="translate(0 0.272949)"/>
</clipPath>
</defs>
</svg>
