<svg width="28" height="30" viewBox="0 0 28 30" fill="none" xmlns="http://www.w3.org/2000/svg">
<g clip-path="url(#clip0_35_89)">
<path d="M3.02189 0.333252H3.71579C4.38935 0.469894 5.02223 0.702859 5.6212 1.04334C12.1466 4.75733 18.6765 8.46236 25.1974 12.1831C25.6675 12.4519 26.1196 12.7834 26.5038 13.1597C27.5571 14.1924 27.6023 15.523 26.6734 16.6587C26.2665 17.156 25.7421 17.5099 25.1884 17.8257C18.6697 21.5308 12.1534 25.2403 5.62798 28.9341C5.15784 29.2007 4.64024 29.4135 4.11586 29.5546C2.70319 29.9376 1.48943 29.2992 0.962782 27.9485C0.716413 27.3257 0.666687 26.6716 0.666687 26.0108C0.666687 18.668 0.666687 11.3274 0.666687 3.98676C0.666687 3.69107 0.675728 3.39315 0.711892 3.0997C0.806824 2.29553 1.05319 1.55631 1.66121 0.973904C2.04319 0.606537 2.52011 0.449734 3.02189 0.333252Z" fill="white"/>
</g>
<defs>
<clipPath id="clip0_35_89">
<rect width="26.6667" height="29.3333" fill="white" transform="translate(0.666687 0.333252)"/>
</clipPath>
</defs>
</svg>
