<svg width="60" height="55" viewBox="0 0 60 55" fill="none" xmlns="http://www.w3.org/2000/svg">
<g clip-path="url(#clip0_249_124)">
<path d="M22.1947 53.7749C22.4626 52.2068 22.6343 50.534 23.0534 48.9264C23.4569 47.3806 23.2337 46.2533 21.9045 45.2256C20.6749 44.2769 19.6428 43.0724 18.5179 41.9864C18.147 41.6278 17.8447 41.2555 18.0405 40.6945C18.2294 40.1523 18.6553 39.9979 19.1842 39.9259C21.2622 39.6411 23.3384 39.3425 25.4078 39.0045C25.6843 38.9599 26.0261 38.706 26.1549 38.4538C27.1148 36.5923 28.0319 34.7084 28.9507 32.8263C29.1808 32.3579 29.4556 31.977 30.0395 31.9788C30.6233 31.9788 30.8981 32.3631 31.1265 32.8315C32.0384 34.693 32.9778 36.5425 33.8708 38.4143C34.0632 38.8192 34.319 38.9771 34.7363 39.0354C36.8143 39.3237 38.8871 39.6376 40.9651 39.9276C41.4734 39.9979 41.8667 40.1884 42.0384 40.7014C42.2153 41.2298 41.9526 41.6021 41.5954 41.9469C40.1047 43.3933 38.6261 44.8533 37.1217 46.2842C36.792 46.5982 36.6804 46.8899 36.7645 47.3479C37.1458 49.4085 37.4875 51.4759 37.8464 53.5399C37.9289 54.0117 37.8773 54.4458 37.4703 54.7563C37.0393 55.0857 36.5996 55.0085 36.148 54.7683C34.3345 53.8058 32.5021 52.8759 30.7041 51.886C30.2043 51.6115 29.8334 51.6355 29.3508 51.8997C27.5287 52.8931 25.6895 53.8539 23.8468 54.8061C22.9898 55.2487 22.1724 54.7615 22.193 53.7732L22.1947 53.7749ZM24.6522 51.982C26.0278 51.2632 27.3175 50.685 28.5059 49.9404C29.5809 49.2661 30.4928 49.2575 31.5713 49.9404C32.7545 50.6867 34.046 51.2614 35.3958 51.9666C35.334 51.5617 35.2928 51.27 35.243 50.9818C35.0077 49.5921 34.7827 48.2006 34.5268 46.8144C34.4186 46.2293 34.5801 45.7901 35.0128 45.3818C36.1325 44.3232 37.2265 43.2389 38.3273 42.1614C38.4389 42.0533 38.5299 41.9246 38.6759 41.7514C36.8985 41.4889 35.2103 41.2246 33.5153 40.9965C32.9692 40.9227 32.6103 40.6739 32.3785 40.1884C32.0384 39.4746 31.6829 38.7695 31.3326 38.0609C30.9222 37.2271 30.51 36.395 30.036 35.4376C29.4538 36.6146 28.9455 37.6629 28.4183 38.7026C27.0942 41.3139 27.8121 40.7717 24.8291 41.2418C23.706 41.4185 22.5811 41.5815 21.6245 41.7256C22.7013 42.8803 23.754 44.0916 24.9012 45.2068C25.5006 45.7901 25.6517 46.37 25.4971 47.1558C25.1914 48.7034 24.951 50.2629 24.6556 51.9855L24.6522 51.982Z" fill="#009BDA"/>
<path d="M45.2842 35.997C45.2705 36.6198 44.8497 37.0899 44.307 37.1293C43.7369 37.1705 43.2577 36.7776 43.1667 36.1411C42.9778 34.8286 42.7941 33.5161 42.6412 32.2001C42.3304 29.5254 42.0676 26.8437 41.7345 24.1707C41.2897 20.6003 38.7961 18.2636 35.2086 17.8381C31.549 17.404 27.9048 17.4623 24.2538 17.8792C21.2571 18.2207 18.9266 20.3069 18.2328 23.4655C17.9272 24.8553 17.8722 26.3016 17.7091 27.7239C17.3931 30.4844 17.0874 33.2484 16.7611 36.0073C16.6632 36.8359 16.1858 37.2391 15.5074 37.1396C14.8737 37.047 14.5578 36.5185 14.6436 35.7328C15.0541 32.0131 15.4714 28.2952 15.8646 24.5739C16.4056 19.4508 19.2701 16.4278 24.3568 15.7569C28.1315 15.2594 31.9114 15.3143 35.6963 15.7569C39.6805 16.2219 42.7271 19.0253 43.6373 23.0726C43.9962 24.67 44.0649 26.3307 44.2692 27.9624C44.5938 30.5496 44.9201 33.1386 45.2464 35.7259C45.2601 35.8323 45.279 35.9369 45.2876 35.9987L45.2842 35.997Z" fill="#009BDA"/>
<path d="M3.17019 53.7304C3.40374 52.3853 3.63558 50.9286 3.91551 49.4823C4.02885 48.8921 3.96016 48.4649 3.46728 48.0291C2.44204 47.125 1.49408 46.1298 0.508329 45.1811C0.130517 44.8173 -0.133952 44.4296 0.0721277 43.8789C0.262751 43.3693 0.673192 43.2149 1.17465 43.148C2.65842 42.949 4.14048 42.7396 5.61566 42.4891C5.85437 42.448 6.14116 42.2164 6.25623 41.995C6.938 40.6894 7.58372 39.3632 8.226 38.0369C8.4544 37.5651 8.74292 37.1877 9.31994 37.1928C9.89524 37.1979 10.1752 37.5771 10.4036 38.0506C11.0064 39.3014 11.6521 40.5315 12.2377 41.7909C12.4592 42.2661 12.7288 42.4891 13.2784 42.5475C14.7227 42.7036 16.1652 42.9164 17.5923 43.1891C17.9512 43.2578 18.36 43.5786 18.5471 43.8994C18.7893 44.3146 18.5695 44.759 18.2123 45.1021C17.1183 46.1573 16.0192 47.2056 14.9579 48.2916C14.7742 48.4786 14.654 48.8509 14.6935 49.11C14.9133 50.6112 15.2224 52.0988 15.4199 53.6C15.468 53.962 15.2928 54.4407 15.0558 54.7306C14.7398 55.1167 14.247 55.0292 13.8142 54.8027C12.509 54.1164 11.1953 53.4456 9.90211 52.7336C9.50369 52.5139 9.19286 52.4951 8.78413 52.7215C7.47553 53.4456 6.14632 54.1336 4.81195 54.8113C3.95501 55.247 3.14614 54.7512 3.17362 53.7269L3.17019 53.7304ZM3.45355 44.9683C4.23836 45.773 4.96651 46.5468 5.72557 47.2914C6.1446 47.7014 6.30946 48.1321 6.18581 48.7274C5.97287 49.7637 5.82689 50.812 5.63112 51.9838C6.63404 51.4622 7.54079 51.0367 8.39773 50.5272C9.04688 50.1429 9.60673 50.1514 10.2507 50.5306C11.1025 51.0316 11.999 51.4571 13.0002 51.9804C12.8147 50.8823 12.6893 49.9301 12.4833 48.9968C12.315 48.2299 12.4661 47.6534 13.074 47.1129C13.8125 46.4575 14.4616 45.7026 15.1812 44.9597C14.2349 44.8242 13.3299 44.6492 12.4163 44.5771C11.5353 44.5068 10.9566 44.1568 10.6148 43.3075C10.2593 42.4257 9.7819 41.5936 9.31479 40.6499C8.77726 41.7325 8.28439 42.7019 7.81384 43.6798C7.59231 44.1414 7.26773 44.4107 6.74395 44.4794C5.65173 44.6218 4.56466 44.8002 3.45355 44.9666V44.9683Z" fill="#009BDA"/>
<path d="M55.6964 54.9743C55.5676 54.9193 55.3065 54.8318 55.0644 54.7049C53.7953 54.0426 52.5227 53.3838 51.2674 52.6958C50.905 52.4968 50.6234 52.5071 50.2627 52.7044C48.9679 53.4113 47.6524 54.0752 46.3507 54.7684C45.9007 55.0068 45.4628 55.1012 45.03 54.7701C44.6041 54.4458 44.5612 54.0117 44.6557 53.5039C44.9304 52.0336 45.1846 50.5598 45.4044 49.0826C45.4405 48.8389 45.3254 48.4889 45.152 48.3139C44.1044 47.245 43.0259 46.2053 41.944 45.1708C41.5748 44.8173 41.3481 44.4262 41.5061 43.9183C41.6744 43.3762 42.1157 43.2149 42.6464 43.1445C44.1302 42.9507 45.6122 42.7379 47.0874 42.4857C47.3244 42.4445 47.6043 42.2009 47.7211 41.9762C48.4029 40.6688 49.0486 39.3443 49.6891 38.018C49.9193 37.5394 50.2198 37.1808 50.7934 37.1928C51.3361 37.2048 51.6194 37.56 51.8392 38.0112C52.4832 39.3357 53.1564 40.6482 53.7884 41.9796C53.9567 42.3347 54.1748 42.4754 54.5595 42.5235C56.0656 42.7173 57.5717 42.9112 59.0623 43.1926C59.4144 43.2595 59.8695 43.6095 59.9725 43.9269C60.0755 44.2426 59.909 44.7916 59.6634 45.0507C58.6055 46.1693 57.4652 47.2073 56.385 48.3053C56.215 48.4786 56.1016 48.8252 56.1377 49.0654C56.3575 50.5443 56.6289 52.0147 56.8779 53.4885C57.029 54.3823 56.6014 54.9914 55.7015 54.9708L55.6964 54.9743ZM44.8171 44.9786C45.2997 45.459 45.6912 45.8502 46.0845 46.2397C48.0594 48.2007 47.8001 47.4664 47.3862 50.148C47.3278 50.5272 47.2454 50.9046 47.187 51.2838C47.1578 51.4759 47.1527 51.6715 47.1303 51.9512C48.1453 51.4228 49.0658 50.9733 49.957 50.4706C50.522 50.1514 51.0235 50.1583 51.5851 50.4706C52.4935 50.9784 53.4278 51.4382 54.4479 51.9701C54.2572 50.8291 54.1216 49.7929 53.8983 48.7772C53.7558 48.1269 53.9481 47.6757 54.4049 47.2365C55.1537 46.5159 55.8647 45.7558 56.6409 44.9597C55.6328 44.8173 54.6694 44.6543 53.6991 44.5531C52.9486 44.4742 52.442 44.1705 52.1329 43.4465C51.7431 42.5303 51.2588 41.6536 50.7608 40.6482C50.2335 41.7137 49.7475 42.6813 49.277 43.6558C49.0451 44.1379 48.7068 44.4176 48.1573 44.4879C47.0771 44.6235 46.0003 44.8019 44.8171 44.9769V44.9786Z" fill="#009BDA"/>
<path d="M29.9639 -1.50197e-06C33.4793 0.0171554 36.2579 2.10172 37.0359 5.30321C37.9203 8.94391 35.4937 13.5471 31.9886 14.8545C30.3572 15.4635 28.7515 15.3572 27.2007 14.5765C24.3654 13.1491 22.3355 9.4895 22.6137 6.33262C22.9435 2.59756 25.9814 -0.0205898 29.9639 -1.50197e-06ZM35.1073 6.8988C35.0678 6.56767 35.0575 6.17993 34.9734 5.80762C34.4341 3.4554 32.2085 1.9353 29.5981 2.11888C27.0135 2.30074 25.1399 3.82771 24.7862 6.03924C24.4032 8.42749 25.8543 11.4111 27.9735 12.5863C29.2581 13.2983 30.5581 13.3172 31.8152 12.5623C33.9206 11.2961 34.9613 9.38484 35.109 6.90052L35.1073 6.8988Z" fill="#009BDA"/>
<path d="M23.3367 26.0099C23.1135 29.2337 22.892 32.4558 22.667 35.6795C22.655 35.8494 22.6361 36.021 22.6069 36.1891C22.4987 36.8239 22.0419 37.1894 21.4443 37.1276C20.8878 37.0693 20.51 36.642 20.5255 36.0124C20.5427 35.3278 20.6045 34.645 20.6526 33.9621C20.8552 31.1244 21.051 28.2849 21.2708 25.4471C21.3206 24.8038 21.8066 24.392 22.3682 24.4263C22.9435 24.4623 23.3453 24.9221 23.3574 25.5587C23.3608 25.7079 23.3574 25.8589 23.3574 26.0082C23.3488 26.0082 23.3419 26.0082 23.3333 26.0082L23.3367 26.0099Z" fill="#009BDA"/>
<path d="M36.4589 26.1489C36.4486 25.9361 36.4263 25.7217 36.4314 25.5089C36.4469 24.881 36.8831 24.4298 37.4618 24.4246C38.0268 24.4195 38.475 24.8518 38.5248 25.4901C38.6554 27.1526 38.7739 28.8151 38.8924 30.4776C39.016 32.2036 39.1482 33.9296 39.2478 35.6573C39.2667 35.985 39.229 36.3521 39.0933 36.6421C38.8924 37.0744 38.4304 37.2837 38.0165 37.0967C37.6782 36.9423 37.3021 36.5837 37.2077 36.244C37.0394 35.6384 37.0668 34.9761 37.0222 34.3379C36.8316 31.6099 36.6444 28.8803 36.4572 26.1523L36.4589 26.1489Z" fill="#009BDA"/>
</g>
<defs>
<clipPath id="clip0_249_124">
<rect width="60" height="55" fill="white"/>
</clipPath>
</defs>
</svg>
