<svg width="56" height="60" viewBox="0 0 56 60" fill="none" xmlns="http://www.w3.org/2000/svg">
<path d="M0.307611 17.8841C0.393493 16.6313 0.459168 15.3768 0.57031 14.1256C0.654508 13.1801 1.04014 12.7972 1.97811 12.6528C8.89078 11.5948 15.2646 9.13612 21.0052 5.16266C22.962 3.80738 24.742 2.19011 26.5606 0.645064C27.5474 -0.194637 28.1604 -0.238302 29.1085 0.668576C35.7888 7.06542 43.7657 10.9129 52.8406 12.4966C55.0954 12.8896 55.0685 13.3867 55.1864 15.1534C55.7236 23.2095 54.4858 30.9818 51.2796 38.3947C47.4334 47.2871 41.3206 54.1189 32.505 58.3846C31.2454 58.9942 29.91 59.4577 28.578 59.8961C28.1183 60.0472 27.5222 60.0354 27.0574 59.8877C19.589 57.513 13.7574 52.898 9.1198 46.6993C5.1086 41.337 2.71063 35.2643 1.37019 28.7499C0.6343 25.1643 0.292455 21.5435 0.307611 17.8841ZM3.35727 15.365C3.3337 15.5565 3.3017 15.7211 3.29328 15.8873C3.09626 19.7298 3.29833 23.5471 4.01402 27.3308C5.30057 34.134 7.77095 40.4335 12.1189 45.8999C16.0712 50.8709 20.9227 54.6614 26.9496 56.8597C27.5525 57.0797 28.0796 57.0965 28.6942 56.8715C34.9737 54.5707 40.0307 50.6241 43.9796 45.3121C50.4831 36.5641 52.8103 26.5868 52.3792 15.8453C52.359 15.3432 52.0795 15.2844 51.7174 15.2156C43.9291 13.7562 36.885 10.6392 30.6257 5.78403C29.6692 5.04342 28.7633 4.23898 27.8135 3.44799C20.825 9.78605 12.6359 13.6201 3.35727 15.365Z" fill="#009BDA"/>
</svg>
