<svg width="16" height="10" viewBox="0 0 16 10" fill="none" xmlns="http://www.w3.org/2000/svg">
<path d="M1.33334 4.33333C0.965154 4.33333 0.666677 4.63181 0.666677 5C0.666677 5.36819 0.965154 5.66667 1.33334 5.66667V4.33333ZM15.1381 5.4714C15.3984 5.21105 15.3984 4.78895 15.1381 4.5286L10.8954 0.285955C10.6351 0.0256058 10.213 0.0256058 9.95263 0.285955C9.69228 0.546305 9.69228 0.968415 9.95263 1.22876L13.7239 5L9.95263 8.77124C9.69228 9.03159 9.69228 9.4537 9.95263 9.71404C10.213 9.97439 10.6351 9.97439 10.8954 9.71404L15.1381 5.4714ZM1.33334 5.66667L14.6667 5.66667V4.33333L1.33334 4.33333V5.66667Z" fill="white"/>
</svg>
