<svg width="16" height="16" viewBox="0 0 16 16" fill="none" xmlns="http://www.w3.org/2000/svg">
<path d="M9.32555 7.99999L15.2253 2.10086C15.5915 1.73464 15.5915 1.14087 15.2253 0.774677C14.8591 0.408451 14.2653 0.408451 13.8991 0.774677L7.99998 6.67442L2.10085 0.774677C1.73463 0.408451 1.14086 0.408451 0.774669 0.774677C0.408473 1.1409 0.408444 1.73467 0.774669 2.10086L6.67441 7.99999L0.774669 13.8991C0.408444 14.2654 0.408444 14.8591 0.774669 15.2253C1.14089 15.5915 1.73466 15.5915 2.10085 15.2253L7.99998 9.32556L13.8991 15.2253C14.2653 15.5915 14.8591 15.5915 15.2253 15.2253C15.5915 14.8591 15.5915 14.2653 15.2253 13.8991L9.32555 7.99999Z" fill="white"/>
</svg>
