<svg width="60" height="54" viewBox="0 0 60 54" fill="none" xmlns="http://www.w3.org/2000/svg">
<g clip-path="url(#clip0_291_6367)">
<path d="M59.073 44.298C51.2241 30.6836 43.3644 17.0735 35.5026 3.46547C32.8291 -1.16279 27.2074 -1.14991 24.5338 3.48049C21.4054 8.89407 18.277 14.3098 15.1507 19.7255C10.4345 27.8942 5.72039 36.065 0.999866 44.2315C0.270331 45.4932 -0.165245 46.8256 0.0600527 48.289C0.566436 51.5762 2.97176 53.6146 6.34049 53.6189C14.2345 53.6275 22.1306 53.6189 30.0246 53.6189C37.9186 53.6189 45.6539 53.6232 53.4685 53.6125C54.08 53.6125 54.7108 53.6039 55.2988 53.4644C59.4356 52.4838 61.2509 48.0766 59.073 44.2959V44.298ZM54.7945 51.2543C54.4104 51.3445 53.9985 51.338 53.5994 51.338C45.729 51.3445 37.8607 51.3423 29.9925 51.3423C22.1242 51.3423 14.3053 51.2651 6.46494 51.3809C3.31507 51.426 1.25091 48.2954 2.96317 45.3515C10.8658 31.765 18.6954 18.1356 26.5594 4.52544C28.2866 1.5365 31.7584 1.5365 33.4856 4.52544C41.3603 18.157 49.2307 31.7908 57.0947 45.4266C58.5109 47.8835 57.4144 50.645 54.7945 51.2565V51.2543Z" fill="#009BDA"/>
<path d="M31.9644 19.4443C31.9708 23.7207 31.9708 27.997 31.9644 32.2734C31.9622 33.5651 31.3464 34.1509 30.0247 34.1509C28.7029 34.1509 28.0828 33.5694 28.0785 32.282C28.0721 30.1427 28.0785 28.0056 28.0785 25.8663C28.0785 23.7271 28.0743 21.5921 28.0785 19.4529C28.0828 18.1612 28.6986 17.5732 30.0182 17.5732C31.3379 17.5732 31.9622 18.1612 31.9644 19.4443Z" fill="#009BDA"/>
<path d="M31.9621 42.7914C31.9471 43.8492 31.0609 44.7311 30.0138 44.7311C28.9389 44.7332 28.0505 43.7999 28.0806 42.6991C28.1106 41.6155 28.9625 40.8131 30.0675 40.8324C31.1575 40.8517 31.9793 41.7014 31.9621 42.7914Z" fill="#009BDA"/>
</g>
<defs>
<clipPath id="clip0_291_6367">
<rect width="60" height="53.623" fill="white"/>
</clipPath>
</defs>
</svg>
