<svg width="30" height="21" viewBox="0 0 30 21" fill="none" xmlns="http://www.w3.org/2000/svg">
<g clip-path="url(#clip0_176_2293)">
<path d="M0 2.27717C0.0829594 2.02407 0.165136 1.77018 0.241834 1.53577C3.27377 4.52631 6.28691 7.49894 9.30476 10.4755C6.27517 13.4613 3.26046 16.4332 0.234008 19.4159C0.172963 19.2353 0.0868726 18.979 0 18.722C0 13.2402 0 7.75906 0 2.27717Z" fill="#009BDA"/>
<path d="M1.51758 0.214155C1.87289 0.137834 2.17264 0.0685222 2.47396 0.0116708C2.57805 -0.00779892 2.6884 0.0031041 2.79562 0.0031041C10.9288 0.0031041 19.0611 0.000767738 27.1943 0.0093344C27.6028 0.0093344 28.0114 0.109798 28.4207 0.162756C28.4512 0.225837 28.4817 0.288919 28.5123 0.352001C28.4152 0.398728 28.2955 0.424428 28.2235 0.496076C24.0982 4.60807 19.976 8.72319 15.8539 12.8383C15.2794 13.4123 14.7246 13.4146 14.1556 12.8461C10.0264 8.72552 5.89721 4.6034 1.7688 0.480501C1.7015 0.412746 1.63732 0.341098 1.51758 0.214155Z" fill="#009BDA"/>
<path d="M1.56445 20.7469C4.59169 17.7641 7.60562 14.7954 10.6242 11.8212C11.3818 12.572 12.1887 13.3757 12.9995 14.1739C13.8824 15.0423 15.1252 15.2744 16.2037 14.7401C16.5112 14.5875 16.7953 14.3616 17.045 14.1225C17.7752 13.4208 18.4827 12.6958 19.1996 11.9809C19.2739 11.9069 19.3514 11.8368 19.389 11.801C22.4107 14.7798 25.4184 17.7447 28.495 20.778C28.1334 20.859 27.8399 20.9322 27.5441 20.9875C27.4212 21.0101 27.2913 20.9977 27.1645 20.9977C19.0525 20.9977 10.9412 20.9977 2.82919 20.9992C2.3964 20.9992 1.97534 20.9572 1.56445 20.7485V20.7469Z" fill="#009BDA"/>
<path d="M29.7888 19.4915C26.724 16.4691 23.7108 13.4988 20.6914 10.5215C23.7265 7.53092 26.7451 4.55595 29.7935 1.55139C29.8561 1.86836 29.9868 2.22193 29.9876 2.5755C30.0009 7.85957 30.0001 13.1436 29.9876 18.4277C29.9868 18.7766 29.86 19.1247 29.7888 19.4908V19.4915Z" fill="#009BDA"/>
</g>
<defs>
<clipPath id="clip0_176_2293">
<rect width="30" height="21" fill="white"/>
</clipPath>
</defs>
</svg>
