<svg width="20" height="25" viewBox="0 0 20 25" fill="none" xmlns="http://www.w3.org/2000/svg">
<g clip-path="url(#clip0_454_4041)">
<path d="M17.889 5.99307L14.431 2.53509C13.1192 1.22333 11.3749 0.500977 9.51937 0.500977H5.03937C2.30374 0.499985 0.078125 2.7256 0.078125 5.46123V19.3527C0.078125 22.0883 2.30374 24.3139 5.03937 24.3139H14.9618C17.6975 24.3139 19.9231 22.0883 19.9231 19.3527V10.9037C19.9231 9.0482 19.2007 7.30581 17.889 5.99307ZM16.4859 7.39611C16.8015 7.71164 17.0684 8.06191 17.2847 8.43797H12.9774C12.4306 8.43797 11.9851 7.99245 11.9851 7.44572V3.13837C12.3612 3.35468 12.7124 3.6216 13.027 3.93713L16.4849 7.39512L16.4859 7.39611ZM17.9386 19.3527C17.9386 20.9939 16.603 22.3294 14.9618 22.3294H5.03937C3.39819 22.3294 2.06262 20.9939 2.06262 19.3527V5.46123C2.06262 3.82005 3.39819 2.48448 5.03937 2.48448H9.51937C9.6811 2.48448 9.84185 2.49242 10.0006 2.5073V7.44572C10.0006 9.0869 11.3362 10.4225 12.9774 10.4225H17.9158C17.9307 10.5812 17.9386 10.742 17.9386 10.9037V19.3527ZM13.6789 14.8687C14.0668 15.2567 14.0668 15.8838 13.6789 16.2718C13.4854 16.4653 13.2314 16.5625 12.9774 16.5625C12.7233 16.5625 12.4693 16.4653 12.2758 16.2718L10.9929 14.9888V19.3527C10.9929 19.9004 10.5483 20.3449 10.0006 20.3449C9.45288 20.3449 9.00836 19.9004 9.00836 19.3527V14.9888L7.72538 16.2718C7.33741 16.6597 6.71031 16.6597 6.32234 16.2718C5.93437 15.8838 5.93437 15.2567 6.32234 14.8687L7.92383 13.2672C9.06888 12.1222 10.9323 12.1222 12.0784 13.2672L13.6799 14.8687H13.6789Z" fill="#D0D5DD"/>
</g>
<defs>
<clipPath id="clip0_454_4041">
<rect width="20" height="23.814" fill="white" transform="translate(0 0.5)"/>
</clipPath>
</defs>
</svg>
