<svg width="60" height="60" viewBox="0 0 60 60" fill="none" xmlns="http://www.w3.org/2000/svg">
<g clip-path="url(#clip0_152_45)">
<path d="M30.0365 0C30.2582 0 30.4761 0.0640918 30.6613 0.185992L36.5774 4.05161C36.8016 4.19613 37.1202 4.27153 37.3898 4.25897C39.6595 4.15592 41.9267 4.02648 44.1951 3.89955C44.9068 3.85933 45.3766 4.17477 45.6915 4.80437C46.6613 6.74221 47.6564 8.66748 48.6199 10.6091C48.8215 11.015 49.0822 11.289 49.4928 11.4913C51.4388 12.4514 53.3647 13.4517 55.3107 14.4119C56.0261 14.765 56.2793 15.2941 56.2276 16.0682C56.0777 18.3102 55.9518 20.5534 55.8435 22.7978C55.8321 23.0429 55.9518 23.3269 56.0903 23.5418C57.2806 25.3779 58.4797 27.2089 59.6952 29.0273C60.1008 29.6343 60.1008 30.4235 59.6939 31.0292C58.4835 32.8301 57.2831 34.6385 56.1105 36.4645C55.9153 36.7673 55.8195 37.1243 55.8347 37.4837C55.9253 39.6502 56.04 41.8168 56.1898 43.9796C56.2478 44.8178 55.9329 45.3343 55.1847 45.7C53.2349 46.6526 51.3003 47.6366 49.3757 48.6382C49.0709 48.7965 48.8227 49.0441 48.664 49.3482C47.6602 51.2684 46.6928 53.2075 45.7116 55.1391C45.2607 56.0263 44.9295 56.1997 43.9382 56.1394C41.71 56.005 39.4819 55.8717 37.2512 55.7662C37.0069 55.7549 36.7235 55.8818 36.5081 56.0213C34.6717 57.2152 32.834 58.4103 31.0227 59.6406C30.33 60.1119 29.7279 60.1219 29.0314 59.6481C27.2038 58.4065 25.3522 57.1963 23.4944 55.9999C23.2551 55.8454 22.915 55.7674 22.6291 55.78C20.3795 55.8868 18.1312 56.0225 15.8842 56.1532C15.1751 56.1947 14.7015 55.8856 14.3853 55.2534C13.4255 53.332 12.433 51.428 11.4833 49.5015C11.2541 49.0353 10.9405 48.7412 10.4769 48.5138C8.61658 47.6014 6.78519 46.63 4.91728 45.7314C4.09605 45.3368 3.77612 44.7776 3.84036 43.874C3.99403 41.7301 4.10361 39.5836 4.19178 37.4359C4.20563 37.0966 4.08849 36.702 3.90334 36.4142C2.74455 34.6033 1.56813 32.8037 0.358961 31.0267C-0.127226 30.3129 -0.119669 29.6984 0.366518 28.9871C1.59332 27.1938 2.78486 25.3753 3.9638 23.5506C4.13762 23.2817 4.22327 22.9662 4.20941 22.6458C4.11494 20.4993 4.00914 18.3516 3.85044 16.209C3.78242 15.2853 4.09479 14.7047 4.93995 14.2975C6.89477 13.3562 8.82441 12.3634 10.7528 11.3681C11.0085 11.2362 11.2176 11.0276 11.3511 10.7712C12.365 8.81451 13.3664 6.85029 14.34 4.87349C14.709 4.1245 15.2456 3.82666 16.0782 3.88447C18.3051 4.03779 20.5345 4.15592 22.7639 4.26148C23.012 4.27279 23.3004 4.16974 23.5133 4.03276C25.0588 3.03619 26.5879 2.01701 28.1258 1.00788C28.554 0.726374 28.9873 0.452413 29.4206 0.175938C29.6057 0.0628351 29.8186 0 30.0365 0ZM39.958 53.4048V53.4074C41.0337 53.4689 42.1093 53.5142 43.1825 53.5984C43.5704 53.6285 43.7719 53.5154 43.9483 53.156C44.835 51.3514 45.7658 49.5681 46.6563 47.766C46.9208 47.2307 47.2962 46.8662 47.8327 46.6023C49.6225 45.7239 51.391 44.8014 53.1846 43.9293C53.5876 43.7333 53.6947 43.507 53.6657 43.0773C53.5284 41.0301 53.4012 38.9829 53.3344 36.9332C53.3193 36.4808 53.4717 35.9593 53.7148 35.5747C54.8081 33.8392 55.9531 32.1364 57.1018 30.4361C57.3108 30.1269 57.3058 29.9183 57.0992 29.6129C55.9619 27.929 54.8572 26.2236 53.7211 24.5384C53.4113 24.0784 53.2752 23.6059 53.3105 23.0542C53.4377 21.007 53.5347 18.9574 53.667 16.9102C53.6922 16.5219 53.5876 16.3258 53.2261 16.1486C51.3821 15.2463 49.5445 14.3327 47.7332 13.3663C47.3314 13.1527 46.9473 12.7694 46.7331 12.3685C45.7734 10.5802 44.8627 8.76424 43.9697 6.94077C43.7732 6.53862 43.5477 6.42426 43.1157 6.45191C41.0639 6.58638 39.0121 6.71708 36.9578 6.78368C36.5056 6.79876 35.9829 6.64293 35.5962 6.40039C33.8567 5.30831 32.1513 4.16471 30.4459 3.02111C30.1411 2.81627 29.9307 2.80873 29.6196 3.0186C27.9331 4.15466 26.244 5.28946 24.5184 6.3652C24.1003 6.62534 23.5385 6.79374 23.0485 6.77991C21.0143 6.72085 18.9814 6.58638 16.9485 6.45191C16.519 6.42301 16.291 6.53234 16.0945 6.93449C15.2028 8.75796 14.2959 10.5752 13.3374 12.3647C13.1233 12.7656 12.7391 13.1489 12.3373 13.3638C10.5437 14.3201 8.72112 15.2224 6.89729 16.1197C6.53454 16.2982 6.38214 16.4892 6.41111 16.9127C6.54588 18.8807 6.62901 20.8525 6.76378 22.8217C6.81038 23.4978 6.66931 24.0696 6.28137 24.6351C5.15533 26.2802 4.08094 27.9591 2.96623 29.6104C2.75841 29.9183 2.75715 30.1307 2.96623 30.4386C4.03937 32.0246 5.05835 33.6482 6.15542 35.2166C6.65924 35.9367 6.81668 36.6643 6.74867 37.5239C6.6013 39.3926 6.53958 41.2689 6.40985 43.1401C6.38088 43.5661 6.53706 43.7546 6.89855 43.9318C8.7249 44.8266 10.55 45.7239 12.3449 46.6752C12.7467 46.8888 13.1333 47.2696 13.3475 47.6705C14.3148 49.4776 15.2305 51.3112 16.1336 53.1522C16.3112 53.5154 16.5114 53.6147 16.8956 53.5896C18.9474 53.4589 20.9992 53.3244 23.0536 53.2603C23.5246 53.2452 24.0688 53.4023 24.4693 53.6537C26.21 54.742 27.9167 55.8856 29.6196 57.0329C29.9332 57.2441 30.1436 57.2302 30.4471 57.0267C32.1526 55.8831 33.8593 54.7395 35.5974 53.6474C35.9841 53.4048 36.5018 53.2704 36.9615 53.2628C37.9578 53.249 38.9554 53.3495 39.953 53.4023L39.958 53.4048Z" fill="#009BDA"/>
<path d="M11.2957 30.0239C11.307 19.7328 19.7246 11.3443 30.0378 11.3468C40.3611 11.3493 48.7673 19.7378 48.761 30.0315C48.7547 40.3301 40.3397 48.7236 30.0302 48.7111C19.707 48.6985 11.2843 40.2975 11.2957 30.0239ZM46.2684 30.0101C46.2457 21.0913 38.939 13.8187 30.0214 13.8401C21.0773 13.8615 13.7959 21.1441 13.8185 30.044C13.8412 38.9754 21.129 46.2316 30.0554 46.2115C38.9995 46.1914 46.2898 38.9063 46.2684 30.0088V30.0101Z" fill="#009BDA"/>
<path d="M27.7454 32.9281C28.0275 32.6617 28.3084 32.3953 28.5906 32.1289C31.223 29.6494 33.8492 27.1624 36.4968 24.7005C36.7789 24.4391 37.1757 24.2355 37.5523 24.1551C38.0536 24.047 38.4591 24.3285 38.7098 24.7746C38.9516 25.2057 38.9214 25.643 38.6367 26.0439C38.502 26.2324 38.3344 26.4021 38.1644 26.5617C35.0772 29.4709 31.9888 32.3789 28.8979 35.2832C27.923 36.1993 27.3524 36.1792 26.4141 35.2178C24.8988 33.6658 23.3823 32.1138 21.8709 30.558C21.6958 30.377 21.5232 30.1835 21.3935 29.9686C21.1088 29.4936 21.202 28.9079 21.595 28.5158C21.9867 28.1238 22.5812 28.0245 23.051 28.311C23.2803 28.4505 23.4743 28.6541 23.6745 28.8376C25.0739 30.1181 26.472 31.4012 27.8701 32.6831C27.8285 32.7648 27.787 32.8452 27.7454 32.9269V32.9281Z" fill="#009BDA"/>
</g>
<defs>
<clipPath id="clip0_152_45">
<rect width="60" height="60" fill="white"/>
</clipPath>
</defs>
</svg>
